<?xml version="1.0" encoding="UTF-8"?><svg xmlns:rdf="http://www.w3.org/1999/02/22-rdf-syntax-ns#" xmlns="http://www.w3.org/2000/svg" height="42" width="31.25037" version="1.1" viewBox="0 0 31.25037 42" preserveAspectRatio="none"><path d="m31.25,0.80083c-0,0.13024-0.0131,0.22139-0.0391,0.27344l-18.594,38.574c-0.11721,0.23436-0.48179,0.35155-1.0938,0.35156-0.16929-0.00001-0.28648-0.0781-0.35157-0.23438l-7.9688-17.52c-1.6797,1.276-2.5586,1.9141-2.6367,1.9141-0.3776,0-0.5664-0.1888-0.5664-0.56641,0-0.11718,0.0586-0.22135,0.17578-0.3125l4.7461-3.5938c0.10416-0.0781,0.20182-0.11718,0.29297-0.11719,0.18229,0.00001,0.31249,0.0912,0.39063,0.27344l7.168,15.762,16.992-35.234c0.118-0.24827,0.345-0.37197,0.684-0.372,0.534,0,0.801,0.26696,0.801,0.80078z"/></svg>